<svg width="440" height="128" viewBox="0 0 440 128" fill="none" xmlns="http://www.w3.org/2000/svg">
  <g transform="translate(0 0)">
    <defs>
      <linearGradient id="solfaai-gradient" x1="22" y1="23" x2="108" y2="105" gradientUnits="userSpaceOnUse"><stop stop-color="#60A5FA"/><stop offset=".52" stop-color="#4F46E5"/><stop offset="1" stop-color="#2563EB"/></linearGradient>
      <filter id="solfaai-glow" x="-30%" y="-30%" width="160%" height="160%" color-interpolation-filters="sRGB"><feGaussianBlur stdDeviation="4" result="blur"/><feMerge><feMergeNode in="blur"/><feMergeNode in="SourceGraphic"/></feMerge></filter>
    </defs>
    <g filter="url(#solfaai-glow)" stroke="url(#solfaai-gradient)" stroke-linecap="round" stroke-linejoin="round"><path d="M30 40C43 27 65 25 82 33C97 40 104 51 98 60C92 69 74 67 61 69C47 71 29 77 30 89C31 101 49 105 64 103C79 101 91 94 98 86" stroke-width="10"/><path d="M23 52H42M86 52H105M23 76H40M85 76H105" stroke-width="5" opacity=".72"/></g>
    <circle cx="30" cy="40" r="7" fill="#60A5FA"/><circle cx="98" cy="86" r="7" fill="#4F46E5"/><circle cx="62" cy="69" r="4.5" fill="#fff"/>
  </g>
  <text x="146" y="81" fill="#0F172A" font-family="Arial, sans-serif" font-size="56" font-weight="700" letter-spacing="-3">Solfa</text>
  <text x="291" y="81" fill="#2563EB" font-family="Arial, sans-serif" font-size="56" font-weight="700" letter-spacing="-3">AI</text>
</svg>
